<svg xmlns="http://www.w3.org/2000/svg" xmlns:xlink="http://www.w3.org/1999/xlink" viewBox="0 0 430 430" width="430" height="430" preserveAspectRatio="xMidYMid meet" style="width: 100%; height: 100%; transform: translate3d(0px, 0px, 0px); content-visibility: visible;"><defs><clipPath id="__lottie_element_45"><rect width="430" height="430" x="0" y="0"/></clipPath><clipPath id="__lottie_element_47"><path d="M0,0 L430,0 L430,430 L0,430z"/></clipPath></defs><g clip-path="url(#__lottie_element_45)"><g clip-path="url(#__lottie_element_47)" transform="matrix(1,0,0,1,0,0)" opacity="1" style="display: block;"><g transform="matrix(0.625,0,0,0.625,215,215)" opacity="1" style="display: block;"><g opacity="1" transform="matrix(1,0,0,1,0,0)"><path stroke-linecap="butt" stroke-linejoin="miter" fill-opacity="0" stroke-miterlimit="4" class="secondary" stroke="rgb(198,31,21)" stroke-opacity="1" stroke-width="28.5" d=" M-104,-159.89999389648438 C-135.03799438476562,-159.89999389648438 -160.1999969482422,-134.73800659179688 -160.1999969482422,-103.69999694824219 C-160.1999969482422,-103.69999694824219 -160.39999389648438,102.70700073242188 -160.39999389648438,102.70700073242188 C-160.39999389648438,134.57000732421875 -134.57000732421875,160.39999389648438 -102.70700073242188,160.39999389648438 C-102.70700073242188,160.39999389648438 103.1050033569336,160.1999969482422 103.1050033569336,160.1999969482422 C134.63800048828125,160.1999969482422 160.1999969482422,134.63800048828125 160.1999969482422,103.1050033569336 C160.1999969482422,103.1050033569336 160.39999389648438,-103.19999694824219 160.39999389648438,-103.19999694824219 C160.39999389648438,-134.625 134.9250030517578,-160.10000610351562 103.5,-160.10000610351562 C103.5,-160.10000610351562 -104,-159.89999389648438 -104,-159.89999389648438z"/></g></g><g transform="matrix(0.6179999709129333,0,0,0.6179999709129333,215,215)" opacity="1" style="display: block;"><g opacity="1" transform="matrix(1,0,0,1,0,0)"><path class="secondary" fill="rgb(198,31,21)" fill-opacity="0" d=" M0,-85 C46.9114990234375,-85 85,-46.9114990234375 85,0 C85,46.9114990234375 46.9114990234375,85 0,85 C-46.9114990234375,85 -85,46.9114990234375 -85,0 C-85,-46.9114990234375 -46.9114990234375,-85 0,-85z"/><path stroke-linecap="butt" stroke-linejoin="miter" fill-opacity="0" stroke-miterlimit="4" class="secondary" stroke="rgb(198,31,21)" stroke-opacity="1" stroke-width="29.25" d=" M0,-85 C46.9114990234375,-85 85,-46.9114990234375 85,0 C85,46.9114990234375 46.9114990234375,85 0,85 C-46.9114990234375,85 -85,46.9114990234375 -85,0 C-85,-46.9114990234375 -46.9114990234375,-85 0,-85z"/></g></g><g transform="matrix(0.6279999613761902,0,0,0.6279999613761902,214.75,215.56399536132812)" opacity="1" style="display: block;"><g opacity="1" transform="matrix(1,0,0,1,0,0)"><path stroke-linecap="round" stroke-linejoin="round" fill-opacity="0" class="secondary" stroke="rgb(198,31,21)" stroke-opacity="1" stroke-width="36" d=" M99.93800354003906,-100.5 C99.93800354003906,-100.5 99.875,-100.5 99.875,-100.5"/></g></g><g transform="matrix(0.707099974155426,-0.707099974155426,0.707099974155426,0.707099974155426,215,215)" opacity="1" style="display: block;"><g opacity="1" transform="matrix(1,0,0,1,0,0)"><path stroke-linecap="round" stroke-linejoin="round" fill-opacity="0" class="primary" stroke="rgb(18,19,49)" stroke-opacity="1" stroke-width="18" d=" M0,-167.5 C92.44325256347656,-167.5 167.5,-92.44325256347656 167.5,0 C167.5,92.44325256347656 92.44325256347656,167.5 0,167.5 C-92.44325256347656,167.5 -167.5,92.44325256347656 -167.5,0 C-167.5,-92.44325256347656 -92.44325256347656,-167.5 0,-167.5z"/></g></g></g></g></svg>